<svg id="Layer_1" data-name="Layer 1" xmlns="http://www.w3.org/2000/svg" xmlns:xlink="http://www.w3.org/1999/xlink" viewBox="0 0 316.64 51.61"><defs><style>.cls-1{fill:url(#New_Gradient_Swatch);}.cls-2{fill:#f47421;}</style><linearGradient id="New_Gradient_Swatch" y1="25.81" x2="316.64" y2="25.81" gradientUnits="userSpaceOnUse"><stop offset="0" stop-color="#69cce2"/><stop offset="0.35" stop-color="#9aca3c"/><stop offset="0.71" stop-color="#fed402"/><stop offset="1" stop-color="#fbb019"/></linearGradient></defs><path class="cls-1" d="M36.16,31.67h8.41a23.19,23.19,0,0,1-1.89,8.07,19.8,19.8,0,0,1-4.39,6.32,19.28,19.28,0,0,1-6.48,4.1,22.41,22.41,0,0,1-8.21,1.45,23.33,23.33,0,0,1-9.9-2A21.67,21.67,0,0,1,6.28,44a24.65,24.65,0,0,1-4.66-8.21A30.43,30.43,0,0,1,0,25.81a30.25,30.25,0,0,1,1.62-9.94A24.75,24.75,0,0,1,6.28,7.66,22,22,0,0,1,13.7,2.07,22.89,22.89,0,0,1,23.6,0a26.09,26.09,0,0,1,7.8,1.14,20.3,20.3,0,0,1,6.45,3.31,17.26,17.26,0,0,1,4.52,5.28,18.26,18.26,0,0,1,2.13,7.11H35.88a17.34,17.34,0,0,0-1.52-3.94,10.84,10.84,0,0,0-2.48-3.1,11,11,0,0,0-3.56-2A14.11,14.11,0,0,0,23.6,7a13.92,13.92,0,0,0-6.8,1.58,13.41,13.41,0,0,0-4.66,4.25,19.1,19.1,0,0,0-2.65,6,27.8,27.8,0,0,0,0,13.8,19.14,19.14,0,0,0,2.65,6A13.31,13.31,0,0,0,16.8,43a13.81,13.81,0,0,0,6.8,1.58,12.18,12.18,0,0,0,5.1-1,11.14,11.14,0,0,0,3.8-2.76A13,13,0,0,0,35,36.71,19.75,19.75,0,0,0,36.16,31.67Zm48.33-6.62a22.72,22.72,0,0,1,1.21,7.52,23,23,0,0,1-1.21,7.59A16.69,16.69,0,0,1,81,46.09,16.18,16.18,0,0,1,75.31,50a21.18,21.18,0,0,1-15.25,0,16.14,16.14,0,0,1-5.65-3.9,16.41,16.41,0,0,1-3.52-5.93,22.71,22.71,0,0,1-1.21-7.59,22.46,22.46,0,0,1,1.21-7.52,16.07,16.07,0,0,1,9.17-9.84,19.48,19.48,0,0,1,7.63-1.41,19.46,19.46,0,0,1,7.62,1.41A16.45,16.45,0,0,1,81,19.11,16.83,16.83,0,0,1,84.49,25.05Zm-6.66,7.52A18.29,18.29,0,0,0,77.24,28a12.35,12.35,0,0,0-1.82-4,9.75,9.75,0,0,0-3.18-2.87,10,10,0,0,0-9.11,0A9.82,9.82,0,0,0,60,24a12.16,12.16,0,0,0-1.83,4,18,18,0,0,0,0,9.15,12.54,12.54,0,0,0,1.83,4,9.58,9.58,0,0,0,3.17,2.9,9.9,9.9,0,0,0,9.11,0,9.52,9.52,0,0,0,3.18-2.9,12.74,12.74,0,0,0,1.82-4A18.17,18.17,0,0,0,77.83,32.57ZM111,13.8a12.47,12.47,0,0,0-6.42,1.69,13.25,13.25,0,0,0-4.69,4.66L99.7,20V14.77H92.25V50.44h7.87v-21a10.56,10.56,0,0,1,.62-3.65,9.41,9.41,0,0,1,1.72-3,7.86,7.86,0,0,1,2.69-2,8.47,8.47,0,0,1,3.59-.73c2.35,0,4.07.63,5.18,1.9s1.7,3.3,1.79,6.1V50.44h7.87V25.94q0-6.06-3.38-9.1T111,13.8Zm35.12,28.36h-.14l-9-27.39h-8.55l13,35.67h8.83l12.77-35.67h-8.15Zm53.44-15.28a20.37,20.37,0,0,1,.52,7.76H173.81a13.4,13.4,0,0,0,.59,4A9.62,9.62,0,0,0,176.15,42a8.42,8.42,0,0,0,3,2.31,9.73,9.73,0,0,0,4.28.87A9.42,9.42,0,0,0,189,43.71a8.72,8.72,0,0,0,3.14-4.45h7.45a14.84,14.84,0,0,1-2.13,5.18,15.35,15.35,0,0,1-3.66,3.83,16,16,0,0,1-4.8,2.34,19.25,19.25,0,0,1-5.55.8A18.86,18.86,0,0,1,176,50a15.36,15.36,0,0,1-5.49-3.87,16.41,16.41,0,0,1-3.38-5.93,24.08,24.08,0,0,1-1.14-7.59,21.32,21.32,0,0,1,1.21-7.21,18.33,18.33,0,0,1,3.45-6,16.23,16.23,0,0,1,12.59-5.62,16,16,0,0,1,7.56,1.76,16.55,16.55,0,0,1,5.55,4.66A18.91,18.91,0,0,1,199.51,26.88Zm-7.35,2.58a12.47,12.47,0,0,0-.79-3.58,9.76,9.76,0,0,0-1.8-3,8.71,8.71,0,0,0-2.76-2.07,8.22,8.22,0,0,0-3.62-.79,9.34,9.34,0,0,0-3.76.73,8.6,8.6,0,0,0-2.9,2,9.91,9.91,0,0,0-1.93,3,10.39,10.39,0,0,0-.79,3.72Zm23.39-7a7.71,7.71,0,0,1,3.18-1.93A11.14,11.14,0,0,1,222,20a8.66,8.66,0,0,1,5.49,1.69,7.42,7.42,0,0,1,2.65,5H238A13.8,13.8,0,0,0,236.32,21a12.7,12.7,0,0,0-3.55-4,15.78,15.78,0,0,0-5-2.38,21.84,21.84,0,0,0-5.9-.79,18.48,18.48,0,0,0-7.69,1.48,15.52,15.52,0,0,0-5.49,4.07,17.43,17.43,0,0,0-3.31,6.11,24.91,24.91,0,0,0-1.1,7.52,23.1,23.1,0,0,0,1.13,7.32,16.47,16.47,0,0,0,3.35,5.83A15.7,15.7,0,0,0,214.21,50a18.29,18.29,0,0,0,7.42,1.42c4.59,0,8.29-1.23,11.07-3.7s4.54-6,5.28-10.66h-7.87a10,10,0,0,1-2.79,6,8,8,0,0,1-5.69,2.14,8.35,8.35,0,0,1-4.35-1.07,8.92,8.92,0,0,1-2.93-2.8,12,12,0,0,1-1.66-3.93,19,19,0,0,1-.52-4.42,18.6,18.6,0,0,1,1-6.59A10.8,10.8,0,0,1,215.55,22.46ZM254.61,4.07h-7.87v10.7h-5.93v5.86h5.93V41.68a22.16,22.16,0,0,0,.45,3.93,6,6,0,0,0,1.45,2.86,6.63,6.63,0,0,0,3,1.73,17.44,17.44,0,0,0,5,.58,23.66,23.66,0,0,0,2.55-.13l2.55-.28V44.3a7.83,7.83,0,0,1-1.65.24c-.55,0-1.11,0-1.66,0a5.57,5.57,0,0,1-2.07-.31,2.3,2.3,0,0,1-1.14-.93,3.73,3.73,0,0,1-.48-1.52,18.68,18.68,0,0,1-.1-2.13v-19h7.1V14.77h-7.1Zm13,4.55h7.86V1.17h-7.86Zm0,41.82h7.86V14.77h-7.86ZM303,31.26l12.14-16.49H306l-7.8,11-7.45-11h-9.52l12.35,16.9L280.14,50.44h9.24l8.77-13.18,9,13.18h9.45Z"/><path class="cls-2" d="M293.59,31.67l-12.35-16.9h9.52L303,31.26l-13.6,19.18h-9.24Z"/></svg>